<svg enable-background="new 0 0 269.6 114.5" viewBox="0 0 269.6 114.5" xmlns="http://www.w3.org/2000/svg"><path d="m20.5 104c.7-.2 1.5-.5 2.2-.7.4-.1.7-.2 1.1-.2 2.1-.4 4.2-.6 6.4-.6 3.3 0 6.5.5 9.7 1.5 10.6-5.4 14.9-18.3 9.6-29s-18.3-14.9-29-9.6-14.9 18.3-9.6 29c2.1 4.1 5.4 7.5 9.6 9.6z" fill="#f2be2a"/><path d="m29.5 80.3s-2.5-.5-3.4-.5-1.7-.2-2.5-.2c-.6.1-1.2.1-1.8 0-.8-.4-1.8-.7-2.7-.8-1.3-.1-2.6-.2-3.9-.4-1.4-.2-2.7-.6-4.1-1.1-.7-.3-1.4-.6-2.1-.7-.7 0-1.1.2-1.3.5-.1.4-.1.8 0 1.2.5 1 1.1 1.9 1.8 2.7 1.3 1 2.6 2 4.1 2.8.6.4 1.3.7 2 .9l1.5.6c.3 0 .6.1.9.2v.3c.3.2.6.3.9.5.5.2 3.5 1.1 3.9 1.2s1.1.3 1.1.3c-.6.5-1.1 1.1-1.5 1.7-.4.8-1.1 2-1.4 2.7-.5 1.1-1.1 2.2-1.7 3.2-.3.4-.6.9-.5 1.1.2.2.5.3.7.3h.5s-1 4.6-1 5.1-.1.8.2 1.1.5.4.6.8c0 .2.1.4.3.5.3.1.7.2 1 .1.6-.3 1.1-.6 1.5-1.1.2-.3 1.9-2.8 2.6-3.9s2.5-3.4 3-4.1.9-1.5.9-1.5.2.4.2.7c.1.3.4.6.7.8.4.3.5.5.9.4.4 0 .9-.2 1.2-.5.6-.4.9-1.1.6-1.8-.4-1.1-.6-1.3-.4-2.3.1-.6.2-1.1.4-1.7.1-.2 2-2.7 3-3.9s2.6-3.3 3.7-4.4 7.7-7.6 8.7-8.6 3.9-4.2 4.3-4.8.7-1.3.8-2c.1-.5-.2-.9-.7-1-.7-.1-1.4 0-2 .2-1.4.7-2.9 1.5-4.2 2.4-.8.6-4.4 3.1-5.3 3.8s-2.6 2-3.7 2.9-2.8 2.2-3.2 2.5l-1 .9c-.3.3-.9.5-1.2.8s-1.4 1-1.5 1.2c-.5.5-.7.7-.9.9z" fill="#fff"/><path d="m30.6 95c.2-.1.5-.1.4-.3l-1 .1-.1-.1c.4-.1.7-.4.7-.8 0-.2-.1-.3-.2-.5-.3-.3-.6-.3-1 .1-.3-.5-.1-.8.9-.9l-.4-1.3h-.1c-.4.6-.8 1.2-1.2 1.8-.6.9-1.2 1.9-1.8 2.8-.4.6-.9 1.2-1.3 1.8s-.7 1-1.1 1.5-.9 1.2-1.3 1.8-.7 1.2-1.1 1.8c-.3.5-.7 1-1.1 1.4-.3.3-.7.2-.9-.3-.1-.2-.2-.5-.4-.6-.2-.2-.3-.6-.2-.9 0-.1 0-.1 0-.2.1-.6.1-1.2.2-1.7 0-.3.1-.7.2-1 .1-.4.2-.8.4-1.1s.3-.8.4-1.3c.2-.6.5-1.1.7-1.7 0-.1 0-.2 0-.2-.4.4-.7.8-1.1 1.3s-.7.4-1.2.3c.2-.3.5-.7.6-1s.5-.9.7-1.4.5-.9.7-1.4.5-1.1.7-1.6.6-1.1.9-1.6c.3-.6.8-1.1 1.4-1.4l.4-.2c-2.2-.4-4.2-1-6.2-1.9v-.1l.3-.1v-.1c-.2-.1-.4-.2-.6-.2-.6-.1-1.3-.3-1.8-.6-.8-.3-1.5-.7-2.2-1-.6-.3-1.1-.7-1.7-1.1-.7-.4-1.4-.9-2-1.4s-1-1.1-1.4-1.7c-.4-.5-.5-1-.5-1.6.1-.2.2-.6.3-.7.3 0 .6 0 .9.1.1 0 .1 0 .2.1l1.4.5c.2.1.5.2.7.2.8.2 1.6.4 2.3.6s1.5.3 2.3.4c.6.1 1.2.1 1.8.2s.9.1 1.4.2.9.2 1.3.3.6.1.9.2c1.1.2 2.1.3 3.2.2.8.1 1.6.1 2.4.2s1.4.3 2.1.4c.2 0 .4-.1.5-.2.5-.4.9-.9 1.4-1.2s.8-.5 1.3-.8c.1-.1.3-.2.4-.4 1-.8 2-1.7 3-2.6 1.3-1.1 2.7-2.3 4-3.4.8-.6 1.6-1.2 2.3-1.8.6-.4 1.1-.9 1.7-1.3.3-.2.7-.4 1-.7 1-.6 1.9-1.2 2.9-1.8.5-.3 1-.6 1.6-.9.7-.4 1.6-.7 2.4-.7.5 0 .9.5.8 1 0 .1 0 .2-.1.3-.2.3-.3.7-.5 1-.3.5-.6.9-.9 1.3-.6.7-1.2 1.4-1.9 2.1-.8.9-1.7 1.7-2.6 2.6s-1.8 1.8-2.7 2.6c-1.5 1.4-3 2.8-4.5 4.2-1 1-2 2-2.9 3-.7.8-1.3 1.6-2 2.4-.9 1-1.8 2.1-2.6 3.1-.2.3-.4.6-.4 1-.2.5-.3 1-.4 1.5s-.1 1.1.1 1.6c.2.4.3.8.3 1.2.1.3-.1.6-.4.8-.2 0-.5 0-.7 0z" fill="#181a55"/><g fill="#41aa54"><path d="m54.2 114.1-.3-.1c-.1 0-.1-.1-.1-.2s-.1-.3-.2-.3c-.2-.1-.2-.2-.4-.2 0-.1-.1-.1-.1-.2-.2.1-.2.2 0 .3s.1.1.2.1l.2.1c0 .1 0 .2.2.3 0 .1.1.3.2.3 0 .2.2.2.4.3s0 .1 0 .2.1 0 .1 0 0-.5-.2-.6z"/><path d="m51.4 111.2c-.1-.1-.1-.2-.2-.2s-.2 0-.2.1v.1l.1.1c0 .1.1.2.2.1s.1-.2.1-.2z"/><path d="m51.5 112.2-.3-.4-.2-.1c-.1-.1-.2-.1-.4-.1 0-.2-.2-.2-.4-.2v-.2l-.2-.1c.1-.2-.2-.2-.2-.4-.1-.4-.4-.4-.7-.4l-.4-.2c-.1 0-.2-.1-.2-.2v-.2c-.1-.1-.2-.1-.3-.1v.1c-.1 0-.1 0-.2.1 0 0 0 0 0-.1h-.2s0 0 0-.1c-.1-.1-.2-.1-.2 0v-.1h-.3s-.1.1-.1.1.1.1.2.1h.2.1l.1.1h.1-.2l.4.2h.1c0 .1.1.2.2.2h.2v.1l.3.2.1.1.2.2c.1.2.2.2.4.2.1.2.4.3.6.3l.4.1.1.1c0 .1.1.2.2.2.1.1.2.2.3.3s.2.2.3.1.1.1 0 .1z"/><path d="m51 110.6c-.1 0-.1.1-.2 0l-.1-.1h-.1s-.1-.1-.1-.1 0 0-.1 0-.2 0-.1-.1-.1 0-.1 0 0-.1-.1 0c0 0 0 0 0-.1h-.1s0 0 0-.1c-.1-.1-.2-.1-.2 0v-.1h-.3s-.1.1-.1.1.1.1.2.1h.2.1l.1.1h.1-.1l.4.2h.1c0 .1.1.2.2.2.1.1.4-.1.3-.1z"/><path d="m47.7 109.4c-.1-.1-1.1-.7-1.2-.7-.7-.2-1.4-.6-2-1-.2-.1-.4-.2-.5-.2-.3 0-.6-.1-.8-.3s-.4-.2-.6-.2c-.4 0-.8-.2-1.1-.5s-.7-.1-1-.1c-.1 0-.2 0-.2 0-1-.4-2.1-.7-3.2-.7-.7 0-1.3-.1-2-.3h-.2c-1.2-.1-2.3-.2-3.4-.2-.8 0-1.7.1-2.5.2-.6.1-1.2.2-1.8.3h-.2l-2 .4c-.4.1-.9.2-1.3.2-.3.1-.5.1-.8.2-.9.3-1.7.6-2.6 1-.7.3-1.3.7-2 1.1s-1.6.9-2.4 1.3c-.4.2-.9.2-1.3.4-.9.3-1.7.9-2.3 1.7-.1.1-.2.2-.4.3-.6.4-1.2.8-1.8 1.2-.2.1-.5.2-.7.3-.1 0-.1 0-.2 0-.3.2-.8.1-.9-.1s-.1-.5 0-.8c.5-.8 1.2-1.6 2-2.1.7-.6 1.4-1.2 2.2-1.7.6-.3 1.1-.7 1.7-.9.7-.4 1.4-.8 2.1-1.1s1.7-.8 2.6-1.2 1.5-.7 2.3-1c.6-.2 1.2-.3 1.8-.5s1.4-.3 2.1-.4c1.4-.3 2.8-.4 4.2-.4.5 0 .9-.1 1.3-.1 1 0 2 .1 3 .2.9.1 1.7.2 2.6.4.6.1 1.2.3 1.8.5.3.1.5.1.8.2.1.1.3.2.4.2s.2.1.3.1c.5-.2.9.2 1.3.3.6.2 1.1.4 1.6.7l1.2.6 1.5.8c.4.2.7.4 1.1.7.6.4 1.2.8 1.8 1.3.2 0-.2-.1-.3-.1z"/></g><path d="m83 43.7h7.7c3.3 0 5.8-.8 7.6-2.3 1.8-1.7 2.8-4.2 2.7-6.7v-15.6c.2-2.5-.8-5-2.7-6.7-1.8-1.6-4.3-2.4-7.6-2.4h-7.7zm-4.9-43.2h12.4c3.9-.1 7.7.6 11.2 2.2 3 1.4 5.5 3.6 7.1 6.4 1.7 3.1 2.5 6.7 2.4 10.2v14.9c.1 3.5-.7 6.9-2.3 9.9-1.6 2.9-4 5.2-7 6.6-3.6 1.7-7.5 2.5-11.4 2.3h-17.4v-52.5zm72 9.6v43.1h-10v-43.1h-14.3v-9.6h38.6v9.6zm-130.3 43.7c-2.5 0-4.9-.3-7.4-.8-2.3-.5-4.6-1.2-6.8-2.2-2-.9-3.9-2.1-5.7-3.5l4.7-8.3c2.1 1.7 4.5 3 7 3.9 2.6.9 5.4 1.4 8.2 1.4 2.6.1 5.2-.4 7.5-1.7 1.7-.9 2.7-2.7 2.7-4.6.1-1.2-.4-2.5-1.2-3.4-.9-.9-1.9-1.5-3.1-1.8-1.6-.5-3.3-.8-4.9-1-.1 0-.1 0-.2 0s-.1 0-.2 0l-.8-.1c-3-.4-5.9-1.1-8.8-2.1-2.3-.9-4.4-2.4-5.9-4.4-1.6-2.1-2.4-5.1-2.4-9-.1-3.1.7-6.1 2.3-8.8 1.6-2.4 3.9-4.4 6.6-5.5 3.3-1.3 6.9-2 10.5-1.9 1.9 0 3.9.2 5.8.6 2 .4 3.9 1.1 5.8 1.9s3.7 1.8 5.4 3l-4.2 8.4c-2-1.4-4.1-2.5-6.4-3.3-2-.7-4.2-1.1-6.4-1.2-2.4 0-4.9.5-7 1.6-1.6.8-2.5 2.5-2.5 4.2-.1 1.3.4 2.7 1.3 3.6s2 1.6 3.2 1.9c1.8.5 3.6 1 5.4 1.3h.3.3l.4.1.4.1c2.9.5 5.7 1.3 8.3 2.4 2.3.9 4.2 2.5 5.6 4.5 1.5 2.1 2.2 4.9 2.2 8.5.1 3.1-.7 6.1-2.3 8.7-1.7 2.5-4.1 4.4-6.9 5.5-3.4 1.4-7.1 2-10.8 2zm33.2-.6h-10.3v-52.7h10.3zm14.8 0h-10.3v-52.7h10.3zm47.1-52.7h9.9v9.9h-9.9zm0 15.1h9.9v37.6h-9.9z" fill="#493226"/><path d="m250.4 103c1.6 0 3.3-.4 4.7-1.1 1.3-.7 2.4-1.9 3.1-3.2.8-1.5 1.1-3.2 1.1-4.8v-15.6c0-1.7-.3-3.3-1.1-4.8-.7-1.4-1.8-2.5-3.1-3.2-3-1.5-6.5-1.5-9.4 0-1.3.7-2.4 1.9-3.1 3.2-.8 1.5-1.1 3.2-1.1 4.8v15.4c0 1.7.3 3.3 1.1 4.8.7 1.4 1.8 2.5 3.1 3.2 1.4.9 3.1 1.3 4.7 1.3zm0 9.9c-3.5.1-7-.8-10.1-2.4-2.9-1.6-5.2-3.9-6.8-6.8-1.6-3.1-2.5-6.7-2.4-10.2v-15c-.1-3.5.7-7.1 2.4-10.2 1.5-2.9 3.9-5.2 6.8-6.8 6.3-3.2 13.8-3.2 20.2 0 2.9 1.6 5.2 3.9 6.8 6.8 1.6 3.1 2.5 6.7 2.4 10.2v14.9c.1 3.5-.7 7.1-2.4 10.2-1.5 2.9-3.9 5.2-6.8 6.8-3.1 1.7-6.6 2.6-10.1 2.5zm-40.5 0c-3.6.1-7.1-.7-10.3-2.3-2.8-1.5-5.1-3.8-6.5-6.7-1.6-3.3-2.4-7-2.2-10.6v-14.5c-.1-3.7.7-7.3 2.3-10.6 1.4-2.9 3.7-5.2 6.5-6.7 3.2-1.6 6.7-2.4 10.3-2.3 3.1-.1 6.1.7 8.9 2.1 2.7 1.5 4.9 3.6 6.5 6.2 1.8 3 3 6.4 3.5 9.8h-10.3c-.3-1.6-.9-3.1-1.8-4.5-.7-1.2-1.7-2.1-2.9-2.8s-2.5-1-3.9-1c-1.7 0-3.3.4-4.8 1.2-1.3.8-2.4 1.9-3 3.3-.7 1.7-1.1 3.5-1 5.3v14.5c-.1 1.8.3 3.6 1 5.2.6 1.4 1.7 2.5 3 3.3 1.5.8 3.1 1.2 4.8 1.1 1.4 0 2.7-.3 3.9-1s2.2-1.6 2.9-2.8c.9-1.4 1.4-2.9 1.7-4.5h10.3c-.5 3.5-1.8 6.8-3.6 9.8-1.6 2.6-3.8 4.7-6.4 6.2-2.8 1.6-5.8 2.3-8.9 2.3zm-126 0c-3.6.1-7.1-.7-10.3-2.3-2.8-1.5-5.1-3.8-6.5-6.7-1.6-3.3-2.4-7-2.2-10.6v-14.5c-.1-3.7.7-7.3 2.3-10.6 1.4-2.9 3.7-5.2 6.5-6.7 3.2-1.6 6.7-2.4 10.3-2.3 3.1-.1 6.1.7 8.9 2.1 2.7 1.5 4.9 3.6 6.5 6.2 1.8 3 3 6.4 3.5 9.8h-10.4c-.3-1.6-.9-3.1-1.8-4.5-.7-1.2-1.7-2.1-2.9-2.8s-2.5-1-3.9-1c-1.7 0-3.3.4-4.8 1.2-1.3.8-2.4 1.9-3 3.3-.7 1.7-1.1 3.5-1 5.3v14.5c-.1 1.8.3 3.6 1 5.2.6 1.4 1.7 2.5 3 3.3 1.5.8 3.1 1.2 4.8 1.2 1.4 0 2.7-.3 3.9-1s2.2-1.6 2.9-2.8c.9-1.4 1.4-2.9 1.7-4.5h10.3c-.5 3.5-1.8 6.8-3.6 9.8-1.6 2.6-3.8 4.7-6.4 6.2-2.7 1.5-5.7 2.2-8.8 2.2zm82.9-53.2h6.3l20.1 52.7h-10.7l-3-8.4h-19.3l-3 8.4h-10.6zm9.4 34.6-6.3-18-6.3 18zm-70-34.6h9.9v21.8h18.9v-21.8h9.9v52.7h-9.9v-21.4h-18.9v21.3h-9.9z" fill="#7c9c1e"/><path d="m187 5.5h10v10h-10z" fill="#73931e" transform="matrix(.7071 -.7071 .7071 .7071 48.8234 138.8073)"/><path d="m179.3 14.1h9v9h-9z" fill="#84a51e" transform="matrix(.7071 -.7071 .7071 .7071 40.684 135.4442)"/><path d="m171.7 22.7h8v8h-8z" fill="#c7e44d" transform="matrix(.7071 -.7071 .7071 .7071 32.5538 132.0685)"/><path d="m195.6 14.1h9v9h-9z" fill="#bce03a" transform="matrix(.7071 -.7071 .7071 .7071 45.4519 146.9634)"/><path d="m204.2 22.7h8v8h-8z" fill="#c7e44d" transform="matrix(.7071 -.7071 .7071 .7071 42.0946 155.0794)"/><path d="m197.1 31.9h6v6h-6z" fill="#e4f09d" transform="matrix(.7071 -.7071 .7071 .7071 33.9586 151.7073)"/><path d="m189.5 40.5h5v5h-5z" fill="#726634" transform="matrix(.7071 -.7071 .7071 .7071 25.8225 148.3399)"/><path d="m188 22.8h8v8h-8z" fill="#c7e44d" transform="matrix(.7071 -.7071 .7071 .7071 37.2958 143.5811)"/><path d="m180.9 31.9h6v6h-6z" fill="#e4f09d" transform="matrix(.7071 -.7071 .7071 .7071 29.1798 140.2246)"/></svg>