<svg id="Layer_1" data-name="Layer 1" xmlns="http://www.w3.org/2000/svg" viewBox="0 0 269.65 114.54"><defs><style>.cls-1{fill:#f2be2a;}.cls-2{fill:#fff;}.cls-3{fill:#181a55;}.cls-4{fill:#41aa54;}.cls-5{fill:#493226;}.cls-6{fill:#7c9c1e;}</style></defs><title>logo_horizontal</title><path class="cls-1" d="M19.36,104c.71-.25,1.46-.48,2.25-.68a7.22,7.22,0,0,1,1.1-.25,31.87,31.87,0,0,1,6.37-.62,29.33,29.33,0,0,1,9.66,1.53,21.57,21.57,0,1,0-19.39,0Z" transform="translate(1.1)"/><path class="cls-2" d="M28.39,80.28s-2.51-.49-3.38-.53-1.67-.23-2.47-.19a3.94,3.94,0,0,1-1.75,0,8.14,8.14,0,0,0-2.7-.75,33.62,33.62,0,0,1-3.91-.38,20,20,0,0,1-4.06-1.06A6.6,6.6,0,0,0,8,76.71c-.65,0-1.14.15-1.25.53a2.3,2.3,0,0,0,0,1.25,12.26,12.26,0,0,0,1.78,2.69A32.92,32.92,0,0,0,12.6,84a9.73,9.73,0,0,0,2,.87,8.08,8.08,0,0,0,1.46.59,5.29,5.29,0,0,1,.87.2c.05.07,0,.23,0,.33a4.75,4.75,0,0,0,.9.47c.52.25,3.51,1.07,3.85,1.17s1.07.27,1.07.27a8.82,8.82,0,0,0-1.55,1.72c-.43.76-1.07,2-1.37,2.67a30,30,0,0,1-1.73,3.25c-.34.45-.65.94-.49,1.12a1,1,0,0,0,.72.29h.45s-1,4.59-1,5.1-.11.76.16,1.12.52.43.58.78a.6.6,0,0,0,.31.52,1.66,1.66,0,0,0,1,.14,4.35,4.35,0,0,0,1.48-1.12c.23-.33,1.86-2.84,2.64-3.89s2.49-3.38,2.95-4.12.92-1.46.92-1.46.16.43.23.7a1.46,1.46,0,0,0,.7.8c.43.29.47.47.94.43a2,2,0,0,0,1.21-.47,1.37,1.37,0,0,0,.56-1.75c-.4-1.12-.61-1.32-.4-2.33a9.83,9.83,0,0,1,.36-1.7c.14-.23,2-2.73,3-3.89s2.57-3.34,3.67-4.37,7.7-7.63,8.69-8.6,3.92-4.25,4.32-4.81a4.1,4.1,0,0,0,.81-2,.86.86,0,0,0-.72-1,4,4,0,0,0-2,.23,40.08,40.08,0,0,0-4.21,2.37c-.78.58-4.41,3.09-5.35,3.79s-2.6,2-3.7,2.87-2.8,2.15-3.18,2.49l-1,.92c-.31.27-.9.49-1.25.76s-1.36,1-1.5,1.21A4.33,4.33,0,0,1,28.39,80.28Z" transform="translate(1.1)"/><path class="cls-3" d="M29.49,95c.2-.07.5-.06.39-.32l-1,.09-.06-.14a.88.88,0,0,0,.72-.79.75.75,0,0,0-.19-.48c-.26-.32-.56-.29-1,.07-.32-.48-.06-.76.93-.92l-.43-1.29h-.13c-.41.6-.84,1.19-1.24,1.8-.6.92-1.17,1.87-1.78,2.79-.4.6-.87,1.16-1.3,1.75s-.71,1-1.07,1.54-.9,1.22-1.32,1.85-.69,1.2-1.08,1.76a10.18,10.18,0,0,1-1.15,1.38c-.33.33-.72.15-.87-.29a2.1,2.1,0,0,0-.37-.64.87.87,0,0,1-.22-.92.83.83,0,0,0,0-.18c.08-.57.15-1.15.23-1.72a10.48,10.48,0,0,1,.18-1c.1-.38.23-.76.36-1.13s.26-.85.42-1.27c.22-.58.48-1.14.72-1.71a.26.26,0,0,0,0-.24c-.36.43-.73.85-1.08,1.29s-.72.37-1.18.29c.23-.35.46-.65.64-1s.5-.94.74-1.42.45-.91.67-1.37.46-1.05.72-1.57.57-1.07.86-1.6a3.51,3.51,0,0,1,1.42-1.44l.4-.24a27.35,27.35,0,0,1-6.25-1.88l0-.12.28-.1,0-.08a2.41,2.41,0,0,0-.6-.24A6,6,0,0,1,15,84.93c-.75-.34-1.53-.65-2.25-1a18.85,18.85,0,0,1-1.69-1.12,22.41,22.41,0,0,1-2-1.41A8.41,8.41,0,0,1,7.61,79.7a2.1,2.1,0,0,1-.47-1.62c.05-.24.16-.6.33-.66a2.15,2.15,0,0,1,.89.06.87.87,0,0,1,.19.07l1.42.54c.24.09.47.18.72.25.78.21,1.55.44,2.33.62s1.5.28,2.26.4c.58.09,1.17.13,1.75.2s.92.11,1.38.2.87.23,1.31.35.62.12.92.23a11.54,11.54,0,0,0,3.22.21c.82.07,1.63.13,2.44.23s1.43.26,2.15.36a.73.73,0,0,0,.5-.18c.47-.4.89-.87,1.37-1.25s.84-.52,1.26-.79a4,4,0,0,0,.42-.36c1-.85,2-1.72,2.95-2.56,1.33-1.14,2.66-2.28,4-3.4.76-.62,1.56-1.18,2.34-1.78.56-.43,1.11-.87,1.68-1.29.33-.24.69-.44,1-.66,1-.61,1.91-1.22,2.88-1.82a13.2,13.2,0,0,1,1.58-.86,5.14,5.14,0,0,1,2.41-.68.92.92,0,0,1,.76,1.3c-.18.32-.34.65-.54,1a12.71,12.71,0,0,1-.9,1.31c-.6.72-1.22,1.44-1.87,2.11-.85.89-1.74,1.74-2.63,2.59s-1.82,1.75-2.74,2.61c-1.49,1.4-3,2.77-4.47,4.18-1,1-2,2-2.91,3-.7.77-1.33,1.61-2,2.41-.87,1-1.76,2.06-2.61,3.12a3,3,0,0,0-.44,1,8.84,8.84,0,0,0-.36,1.51,2.49,2.49,0,0,0,.11,1.59,3.25,3.25,0,0,1,.34,1.17.73.73,0,0,1-.37.77,2,2,0,0,1-.73,0Z" transform="translate(1.1)"/><path class="cls-4" d="M53.13,114.06h0l-.29-.14c-.07,0-.07-.13-.08-.2h0a.31.31,0,0,0-.2-.31c-.15-.06-.25-.22-.43-.24A.22.22,0,0,0,52,113h0c-.16.11-.17.21,0,.32s.11.07.17.11l.21.07c0,.12,0,.25.15.31a.26.26,0,0,0,.22.28h0c0,.23.23.21.36.3s0,.12,0,.16.12,0,.12,0S53.34,114.18,53.13,114.06Z" transform="translate(1.1)"/><path class="cls-4" d="M50.29,111.15h-.07c0-.09,0-.2-.1-.24s-.15,0-.19.1l0,0,0,.13h0l.12.13c0,.07.09.17.19.1S50.32,111.22,50.29,111.15Z" transform="translate(1.1)"/><path class="cls-4" d="M50.36,112.16h0l-.28-.44-.15-.08a.66.66,0,0,0-.37-.07c0-.22-.21-.2-.36-.21v-.15l-.22-.07c.07-.21-.19-.21-.22-.36h0c-.11-.37-.41-.38-.72-.37l-.43-.24,0,0a.33.33,0,0,1-.22-.22h0v-.15a.2.2,0,0,0-.27-.06l0,.05h0a.26.26,0,0,0-.18.08.3.3,0,0,0,0-.06l-.18,0a.21.21,0,0,0,.05-.07.21.21,0,0,0-.24,0,.11.11,0,0,0,0-.09h-.29c-.05,0-.14.06-.1.12s.12.06.18.09h.19v0h.13l.12.08s.11,0,.14,0v0h-.16l.37.21.13,0a.21.21,0,0,0,.24.19l.2,0,0,.14.34.16.08.07.16.2c.07.16.23.17.36.23h0a.84.84,0,0,0,.6.35l.43.14.13.1h0a.28.28,0,0,0,.23.21,2.45,2.45,0,0,0,.31.34c.08.06.17.25.28.11S50.52,112.22,50.36,112.16Z" transform="translate(1.1)"/><path class="cls-4" d="M49.88,110.56l0,0c-.11,0-.14.1-.18,0l-.09-.06-.06,0s-.08-.07-.08-.11,0,0-.07,0-.21,0-.14-.08-.14,0-.07,0,0-.08-.08,0a.3.3,0,0,0,0-.06l-.18,0a.21.21,0,0,0,.05-.07.21.21,0,0,0-.24,0,.11.11,0,0,0,0-.09h-.29c-.05,0-.14.06-.1.12s.12.06.18.09h.19v0h.13l.12.08s.11,0,.14,0v0h-.16l.37.21.13,0h0a.21.21,0,0,0,.24.19C49.73,110.79,50,110.64,49.88,110.56Z" transform="translate(1.1)"/><path class="cls-4" d="M46.63,109.38c-.11-.06-1.1-.67-1.22-.7a6.93,6.93,0,0,1-2-1,1.59,1.59,0,0,0-.54-.18,1.1,1.1,0,0,1-.77-.33.87.87,0,0,0-.62-.23,1.72,1.72,0,0,1-1.06-.48c-.35-.26-.68-.13-1-.12a.74.74,0,0,1-.25,0,8.12,8.12,0,0,0-3.16-.66,10.38,10.38,0,0,1-2-.32l-.18,0c-1.15-.06-2.29-.16-3.44-.17a19.75,19.75,0,0,0-2.49.19c-.6.07-1.19.23-1.79.35H25.9l-2,.36c-.43.08-.86.15-1.29.24a5.79,5.79,0,0,0-.77.23c-.86.32-1.74.61-2.58,1-.67.3-1.3.7-1.95,1.05s-1.59.87-2.4,1.26c-.39.19-.86.23-1.26.4a4.24,4.24,0,0,0-2.29,1.65,1.22,1.22,0,0,1-.36.33c-.58.42-1.17.85-1.77,1.24a4.51,4.51,0,0,1-.74.33c-.05,0-.12,0-.17,0-.29.17-.81.14-.92-.13a1,1,0,0,1,0-.77,7,7,0,0,1,2-2.13c.72-.59,1.43-1.2,2.19-1.73a17,17,0,0,1,1.72-.95c.7-.38,1.39-.77,2.1-1.13s1.72-.84,2.59-1.24,1.5-.68,2.28-1c.59-.21,1.21-.3,1.81-.47s1.43-.28,2.14-.41a26.32,26.32,0,0,1,4.24-.42c.45,0,.89-.11,1.33-.1,1,0,2,.09,3,.19a25.7,25.7,0,0,1,2.56.39c.63.13,1.23.35,1.84.54.26.08.52.14.77.24a3.52,3.52,0,0,1,.42.24c.09,0,.2.14.27.12.5-.15.88.19,1.29.33a14.13,14.13,0,0,1,1.62.72c.39.19.76.43,1.15.63l1.45.75a8.92,8.92,0,0,1,1.1.65,19.41,19.41,0,0,1,1.79,1.32S46.65,109.36,46.63,109.38Z" transform="translate(1.1)"/><path class="cls-5" d="M81.91,43.65h7.72q4.89,0,7.57-2.35a8.4,8.4,0,0,0,2.68-6.66V19.13a8.4,8.4,0,0,0-2.68-6.67q-2.68-2.35-7.57-2.35H81.91ZM77,.54H89.4a26.06,26.06,0,0,1,11.25,2.21,15.67,15.67,0,0,1,7.08,6.45,20.23,20.23,0,0,1,2.43,10.22V34.34a20.23,20.23,0,0,1-2.34,9.92,15.94,15.94,0,0,1-7,6.59,25.25,25.25,0,0,1-11.45,2.35H72V.54Zm72,9.56V53.21H139V10.11H124.66V.54h38.62v9.56ZM18.71,53.76A35.59,35.59,0,0,1,11.34,53a31.64,31.64,0,0,1-6.77-2.23A26,26,0,0,1-1.1,47.24L3.5,39a22.29,22.29,0,0,0,7,3.86,25.2,25.2,0,0,0,8.19,1.36,14.42,14.42,0,0,0,7.54-1.65A5.18,5.18,0,0,0,28.93,38a4.61,4.61,0,0,0-1.2-3.37,7.1,7.1,0,0,0-3.12-1.81,37.7,37.7,0,0,0-4.93-1.05.62.62,0,0,0-.2,0,.64.64,0,0,1-.2,0l-.8-.11a48.88,48.88,0,0,1-8.77-2.08,12.91,12.91,0,0,1-5.9-4.38Q1.4,22,1.4,16.19A16.09,16.09,0,0,1,3.68,7.43,14.4,14.4,0,0,1,10.31,1.9,26.14,26.14,0,0,1,20.81,0a26.75,26.75,0,0,1,5.78.65,31.36,31.36,0,0,1,5.78,1.88,32.24,32.24,0,0,1,5.36,3l-4.2,8.4a26.63,26.63,0,0,0-6.36-3.26,19.24,19.24,0,0,0-6.36-1.16A13.78,13.78,0,0,0,13.75,11a4.69,4.69,0,0,0-2.5,4.22,4.94,4.94,0,0,0,1.3,3.64,7.78,7.78,0,0,0,3.22,1.94,51.3,51.3,0,0,0,5.4,1.3l.29.05.29.05.42.09.42.09a44.08,44.08,0,0,1,8.35,2.37,13,13,0,0,1,5.6,4.49q2.25,3.1,2.25,8.46a15.43,15.43,0,0,1-2.35,8.69,14.72,14.72,0,0,1-6.87,5.47A28.11,28.11,0,0,1,18.71,53.76Zm33.19-.54H41.62V.54H51.91Zm14.82,0H56.44V.54H66.73ZM113.85.54h9.93v9.93h-9.93Zm0,15.07h9.93v37.6h-9.93Z" transform="translate(1.1)"/><path class="cls-6" d="M249.31,103a9.44,9.44,0,0,0,4.71-1.14,7.8,7.8,0,0,0,3.13-3.24,10.28,10.28,0,0,0,1.1-4.85V78.29a10.28,10.28,0,0,0-1.1-4.85A7.8,7.8,0,0,0,254,70.19a10.29,10.29,0,0,0-9.42,0,7.8,7.8,0,0,0-3.13,3.24,10.28,10.28,0,0,0-1.1,4.85V93.72a10.28,10.28,0,0,0,1.1,4.85,7.8,7.8,0,0,0,3.13,3.24A9.44,9.44,0,0,0,249.31,103Zm0,9.93a20.54,20.54,0,0,1-10.09-2.41,16.76,16.76,0,0,1-6.76-6.81,21,21,0,0,1-2.39-10.2V78.54a21,21,0,0,1,2.39-10.2,16.76,16.76,0,0,1,6.76-6.81,22.33,22.33,0,0,1,20.18,0,16.76,16.76,0,0,1,6.76,6.81,21,21,0,0,1,2.39,10.2V93.47a21,21,0,0,1-2.39,10.2,16.76,16.76,0,0,1-6.76,6.81A20.54,20.54,0,0,1,249.31,112.88Zm-40.54,0a21.44,21.44,0,0,1-10.29-2.3,15.34,15.34,0,0,1-6.52-6.7,23.16,23.16,0,0,1-2.25-10.63V78.79A23.16,23.16,0,0,1,192,68.16a15.45,15.45,0,0,1,6.52-6.72,21.3,21.3,0,0,1,10.29-2.32,18.21,18.21,0,0,1,8.88,2.14,17.48,17.48,0,0,1,6.47,6.21,26.78,26.78,0,0,1,3.53,9.83H217.36a13.31,13.31,0,0,0-1.79-4.46A8.6,8.6,0,0,0,212.63,70a7.67,7.67,0,0,0-3.86-1A9.27,9.27,0,0,0,204,70.19a7.38,7.38,0,0,0-3,3.33,12.28,12.28,0,0,0-1,5.27V93.25a12.16,12.16,0,0,0,1,5.25,7.4,7.4,0,0,0,3,3.31,9.27,9.27,0,0,0,4.75,1.14,8,8,0,0,0,3.91-1,8.23,8.23,0,0,0,2.93-2.81,13,13,0,0,0,1.74-4.49h10.29a27.25,27.25,0,0,1-3.57,9.83,17.52,17.52,0,0,1-6.45,6.21A18.11,18.11,0,0,1,208.77,112.88Zm-126,0a21.44,21.44,0,0,1-10.29-2.3,15.34,15.34,0,0,1-6.52-6.7,23.16,23.16,0,0,1-2.25-10.63V78.79A23.16,23.16,0,0,1,66,68.16a15.45,15.45,0,0,1,6.52-6.72,21.3,21.3,0,0,1,10.29-2.32,18.21,18.21,0,0,1,8.88,2.14,17.48,17.48,0,0,1,6.47,6.21,26.77,26.77,0,0,1,3.53,9.83H91.38a13.31,13.31,0,0,0-1.79-4.46A8.6,8.6,0,0,0,86.65,70a7.67,7.67,0,0,0-3.86-1A9.27,9.27,0,0,0,78,70.19a7.38,7.38,0,0,0-3,3.33,12.28,12.28,0,0,0-1,5.27V93.25a12.16,12.16,0,0,0,1,5.25,7.4,7.4,0,0,0,3,3.31A9.27,9.27,0,0,0,82.79,103a8,8,0,0,0,3.91-1,8.23,8.23,0,0,0,2.93-2.81,13,13,0,0,0,1.74-4.49h10.29a27.26,27.26,0,0,1-3.57,9.83,17.52,17.52,0,0,1-6.45,6.21A18.1,18.1,0,0,1,82.79,112.88ZM165.7,59.67H172l20.14,52.67H181.46l-3-8.44H159.2l-3,8.44H145.56Zm9.45,34.67-6.3-18-6.3,18Zm-70-34.67h9.93V81.44H134V59.67h9.93v52.67H134V91H115.11v21.34h-9.93Z" transform="translate(1.1)"/></svg>